<?xml version="1.0" encoding="UTF-8" standalone="no"?>
<!-- Created with Inkscape (http://www.inkscape.org/) -->

<svg
   xmlns:dc="http://purl.org/dc/elements/1.1/"
   xmlns:cc="http://creativecommons.org/ns#"
   xmlns:rdf="http://www.w3.org/1999/02/22-rdf-syntax-ns#"
   xmlns:svg="http://www.w3.org/2000/svg"
   xmlns="http://www.w3.org/2000/svg"
   xmlns:sodipodi="http://sodipodi.sourceforge.net/DTD/sodipodi-0.dtd"
   xmlns:inkscape="http://www.inkscape.org/namespaces/inkscape"
   width="127mm"
   height="179mm"
   viewBox="0 0 449.99998 634.25201"
   id="svg4332"
   version="1.1"
   inkscape:version="0.91 r13725"
   sodipodi:docname="car.svg">
  <defs
     id="defs4334" />
  <sodipodi:namedview
     id="base"
     pagecolor="#ffffff"
     bordercolor="#666666"
     borderopacity="1.0"
     inkscape:pageopacity="0.0"
     inkscape:pageshadow="2"
     inkscape:zoom="0.35"
     inkscape:cx="748.91533"
     inkscape:cy="507.87982"
     inkscape:document-units="px"
     inkscape:current-layer="layer1"
     showgrid="false"
     showguides="true"
     inkscape:guide-bbox="true"
     inkscape:window-width="1366"
     inkscape:window-height="703"
     inkscape:window-x="0"
     inkscape:window-y="0"
     inkscape:window-maximized="1" />
  <metadata
     id="metadata4337">
    <rdf:RDF>
      <cc:Work
         rdf:about="">
        <dc:format>image/svg+xml</dc:format>
        <dc:type
           rdf:resource="http://purl.org/dc/dcmitype/StillImage" />
        <dc:title></dc:title>
      </cc:Work>
    </rdf:RDF>
  </metadata>
  <g
     inkscape:label="Camada 1"
     inkscape:groupmode="layer"
     id="layer1"
     transform="translate(0,-418.11023)">
    <g
       id="g27"
       transform="matrix(3.625059,0,0,3.625059,-1934.5195,-1218.4046)">
      <path
         d="m 616.4,451.8 -40.4,0 c -1.2,0 -2.2,1 -2.2,2.2 l 0,0 c 0,1.2 1,2.2 2.2,2.2 l 40.4,0 c 1.2,0 2.2,-1 2.2,-2.2 l 0,0 c -0.1,-1.2 -1,-2.2 -2.2,-2.2 z"
         id="path29"
         inkscape:connector-curvature="0"
         style="fill:#808080" />
      <path
         d="m 657.5,507 c 0,-6 -6.5,-10.2 -15.5,-10.5 l 0,-11.2 C 642,468.2 626.3,454 607.1,454 l -22.7,0 c -19.2,0 -35.4,14.2 -35.4,31.3 l 0,11.2 c -8,0.4 -14.7,4.5 -14.7,10.5 l 14.7,0 0,80.9 c 0,17.1 16.2,31.1 35.4,31.1 l 22.7,0 c 19.2,0 34.9,-14 34.9,-31.1 l 0,-80.9 15.5,0 z"
         id="path31"
         inkscape:connector-curvature="0"
         style="fill:#bd2845" />
      <ellipse
         transform="matrix(0.8796,0.4757,-0.4757,0.8796,296.2293,-240.1057)"
         cx="622.5"
         cy="465.20001"
         rx="9.8000002"
         ry="5"
         id="ellipse33"
         style="fill:#fdc05c" />
      <ellipse
         transform="matrix(-0.8796,0.4757,-0.4757,-0.8796,1289.8173,603.9672)"
         cx="568.5"
         cy="465.20001"
         rx="9.8000002"
         ry="5"
         id="ellipse35"
         style="fill:#fdc05c" />
      <ellipse
         transform="matrix(0.8796,0.4757,-0.4757,0.8796,296.3028,-240.4022)"
         cx="623.09998"
         cy="465.20001"
         rx="7.5999999"
         ry="3.9000001"
         id="ellipse37"
         style="fill:#fbda8f" />
      <ellipse
         transform="matrix(-0.8796,0.4757,-0.4757,-0.8796,1289.1146,604.8248)"
         cx="568"
         cy="465.5"
         rx="7.4000001"
         ry="3.8"
         id="ellipse39"
         style="fill:#fbda8f" />
      <path
         d="m 627.8,621.9 -62.9,0 c -1.2,0 -2.2,1 -2.2,2.2 l 0,0 c 0,1.2 1,2.2 2.2,2.2 l 62.9,0 c 1.2,0 2.2,-1 2.2,-2.2 l 0,0 c 0,-1.2 -1,-2.2 -2.2,-2.2 z"
         id="path41"
         inkscape:connector-curvature="0"
         style="fill:#808080" />
      <rect
         x="586"
         y="614.90002"
         width="23.4"
         height="8.1000004"
         id="rect43"
         style="fill:#999999" />
      <path
         d="m 622.5,623.2 c 10.8,0.1 19.7,-8.7 19.8,-19.5 l 0.2,-28.3 c 0.1,-17.1 -15.9,-31.2 -35.2,-31.3 l -22.7,-0.2 c -19.2,-0.1 -35,13.7 -35.2,30.8 l -0.2,28.3 c -0.1,10.8 8.7,19.7 19.5,19.8 l 53.8,0.4 z"
         id="path45"
         inkscape:connector-curvature="0"
         style="fill:#bd2845" />
      <path
         d="m 620.8,614.7 c 10.1,0.1 18.4,-13.9 18.5,-31.3 l 0.3,-45.2 c 0.2,-27.4 -14.7,-49.8 -32.6,-50 L 585.9,488 C 568,487.9 553.2,510.1 553,537.5 l -0.3,45.2 c -0.1,17.3 8,31.5 18.1,31.5 l 50,0.5 z"
         id="path47"
         inkscape:connector-curvature="0"
         style="fill:#d52846" />
      <path
         d="m 623.3,594 -54.5,0 c -7.7,0 -17.4,0 -14,-14 l 0,0 c 2.6,-7.9 11,-14 18.3,-14 l 45.2,0 c 8.7,0 16.9,6.8 19.1,14 l 0,0 c 0,0 0,0 0,0 3,14 -6.4,14 -14.1,14 z"
         id="path49"
         inkscape:connector-curvature="0"
         style="fill:#1a1a1a" />
      <path
         d="m 635.5,497.5 c -1.8,-6.8 -19.3,-12.2 -40.6,-12.2 -21.2,0 -38.7,5.3 -40.5,12.1 -1.4,2.4 -1.9,6.3 -0.7,12.1 1.3,8.4 6.3,16.5 14,16.5 l 54.5,0 c 7.7,0 12.8,-7.6 14,-16.5 1.1,-5.7 0.7,-9.6 -0.7,-12 z"
         id="path51"
         inkscape:connector-curvature="0"
         style="fill:#1a1a1a" />
      <rect
         x="585.09998"
         y="617.70001"
         width="23.4"
         height="8.1000004"
         id="rect53"
         style="fill:#cccccc" />
      <ellipse
         transform="matrix(0.7071,0.7071,-0.7071,0.7071,596.4241,-217.0107)"
         cx="560.20001"
         cy="611.40002"
         rx="8"
         ry="5.3000002"
         id="ellipse55"
         style="fill:#fbda8f" />
      <ellipse
         transform="matrix(0.7071,-0.7071,0.7071,0.7071,-248.1975,625.6828)"
         cx="631.20001"
         cy="612.40002"
         rx="8"
         ry="5.3000002"
         id="ellipse57"
         style="fill:#fbda8f" />
    </g>
  </g>
</svg>
